<svg xmlns="http://www.w3.org/2000/svg" width="20" height="20" viewBox="0 0 20 20" fill="none">
    <path d="M8.7878 1.17731C9.283 0.173933 10.7138 0.173923 11.209 1.17731L13.567 5.95503L18.8395 6.72117C19.9468 6.88207 20.3889 8.24286 19.5877 9.02386L15.7724 12.7428L16.6731 17.9941C16.8622 19.0969 15.7047 19.9379 14.7143 19.4172L9.9984 16.9379L5.28252 19.4172C4.29213 19.9379 3.13459 19.0969 3.32374 17.9941L4.2244 12.7428L0.40916 9.02386C-0.39209 8.24286 0.0500505 6.88207 1.15735 6.72117L6.42988 5.95503L8.7878 1.17731ZM9.9984 2.1137L7.74008 6.68959C7.54344 7.08804 7.16332 7.3642 6.72361 7.4281L1.67382 8.16186L5.32788 11.7238C5.64606 12.0339 5.79125 12.4807 5.71614 12.9187L4.85353 17.9481L9.3702 15.5735C9.7635 15.3667 10.2333 15.3667 10.6266 15.5735L15.1433 17.9481L14.2807 12.9187C14.2056 12.4807 14.3508 12.0339 14.6689 11.7238L18.323 8.16186L13.2732 7.4281C12.8335 7.3642 12.4534 7.08804 12.2568 6.68959L9.9984 2.1137Z" fill="#FFF8C9"/>
  </svg>
